<mxfile host="65bd71144e">
    <diagram id="JAEOEPi9F0X_vnk_K54W" name="V1">
        <mxGraphModel dx="937" dy="766" grid="1" gridSize="10" guides="1" tooltips="1" connect="1" arrows="1" fold="1" page="1" pageScale="1" pageWidth="1100" pageHeight="1700" math="0" shadow="0">
            <root>
                <mxCell id="0"/>
                <mxCell id="1" parent="0"/>
                <mxCell id="2" value="DB Admin Deletes a User" style="ellipse;whiteSpace=wrap;html=1;" parent="1" vertex="1">
                    <mxGeometry x="410" y="650" width="120" height="80" as="geometry"/>
                </mxCell>
                <mxCell id="3" style="edgeStyle=none;html=1;dashed=1;entryX=0.5;entryY=1;entryDx=0;entryDy=0;startArrow=none;" parent="1" source="26" target="12" edge="1">
                    <mxGeometry relative="1" as="geometry">
                        <mxPoint x="579.9999999999998" y="530" as="targetPoint"/>
                        <Array as="points">
                            <mxPoint x="560" y="450"/>
                        </Array>
                    </mxGeometry>
                </mxCell>
                <mxCell id="4" value="Manager Marks a Product as Sold" style="ellipse;whiteSpace=wrap;html=1;" parent="1" vertex="1">
                    <mxGeometry x="410" y="560" width="120" height="80" as="geometry"/>
                </mxCell>
                <mxCell id="5" style="edgeStyle=none;html=1;exitX=0.5;exitY=0;exitDx=0;exitDy=0;entryX=0.5;entryY=1;entryDx=0;entryDy=0;dashed=1;startArrow=none;" parent="1" source="27" target="12" edge="1">
                    <mxGeometry relative="1" as="geometry"/>
                </mxCell>
                <mxCell id="6" value="Manager Adds a Product" style="ellipse;whiteSpace=wrap;html=1;" parent="1" vertex="1">
                    <mxGeometry x="410" y="440" width="120" height="80" as="geometry"/>
                </mxCell>
                <mxCell id="7" value="Sign Up" style="ellipse;whiteSpace=wrap;html=1;" parent="1" vertex="1">
                    <mxGeometry x="170" y="280" width="120" height="80" as="geometry"/>
                </mxCell>
                <mxCell id="UqwAi3F1GRg0fCYJe8Jc-29" style="edgeStyle=none;html=1;exitX=0.5;exitY=1;exitDx=0;exitDy=0;entryX=0.5;entryY=0;entryDx=0;entryDy=0;dashed=1;startArrow=none;" edge="1" parent="1" source="UqwAi3F1GRg0fCYJe8Jc-30" target="12">
                    <mxGeometry relative="1" as="geometry"/>
                </mxCell>
                <mxCell id="8" value="Customer Buys a Product" style="ellipse;whiteSpace=wrap;html=1;" parent="1" vertex="1">
                    <mxGeometry x="420" y="110" width="120" height="80" as="geometry"/>
                </mxCell>
                <mxCell id="9" style="edgeStyle=none;html=1;exitX=0;exitY=0.5;exitDx=0;exitDy=0;entryX=1;entryY=0.5;entryDx=0;entryDy=0;dashed=1;startArrow=none;" parent="1" source="29" target="12" edge="1">
                    <mxGeometry relative="1" as="geometry"/>
                </mxCell>
                <mxCell id="10" value="Log Out" style="ellipse;whiteSpace=wrap;html=1;" parent="1" vertex="1">
                    <mxGeometry x="670" y="280" width="120" height="80" as="geometry"/>
                </mxCell>
                <mxCell id="11" style="edgeStyle=none;html=1;exitX=0;exitY=0.5;exitDx=0;exitDy=0;entryX=1;entryY=0.5;entryDx=0;entryDy=0;dashed=1;" parent="1" source="12" target="7" edge="1">
                    <mxGeometry relative="1" as="geometry"/>
                </mxCell>
                <mxCell id="12" value="Log In" style="ellipse;whiteSpace=wrap;html=1;" parent="1" vertex="1">
                    <mxGeometry x="410" y="280" width="120" height="80" as="geometry"/>
                </mxCell>
                <mxCell id="13" style="edgeStyle=none;html=1;exitX=0.5;exitY=0.5;exitDx=0;exitDy=0;exitPerimeter=0;entryX=0;entryY=0.5;entryDx=0;entryDy=0;" parent="1" source="17" target="12" edge="1">
                    <mxGeometry relative="1" as="geometry"/>
                </mxCell>
                <mxCell id="14" style="edgeStyle=none;html=1;exitX=0.5;exitY=0.5;exitDx=0;exitDy=0;exitPerimeter=0;entryX=0;entryY=0.5;entryDx=0;entryDy=0;" parent="1" source="17" target="7" edge="1">
                    <mxGeometry relative="1" as="geometry"/>
                </mxCell>
                <mxCell id="15" style="edgeStyle=none;html=1;exitX=0.5;exitY=0.5;exitDx=0;exitDy=0;exitPerimeter=0;entryX=0;entryY=0.5;entryDx=0;entryDy=0;" parent="1" source="17" target="10" edge="1">
                    <mxGeometry relative="1" as="geometry"/>
                </mxCell>
                <mxCell id="16" style="edgeStyle=none;html=1;exitX=0.5;exitY=0.5;exitDx=0;exitDy=0;exitPerimeter=0;entryX=0;entryY=0.5;entryDx=0;entryDy=0;" parent="1" source="17" target="8" edge="1">
                    <mxGeometry relative="1" as="geometry"/>
                </mxCell>
                <mxCell id="17" value="Customer" style="shape=umlActor;verticalLabelPosition=bottom;verticalAlign=top;html=1;outlineConnect=0;" parent="1" vertex="1">
                    <mxGeometry x="80" y="120" width="30" height="60" as="geometry"/>
                </mxCell>
                <mxCell id="18" style="edgeStyle=none;html=1;exitX=0.5;exitY=0.5;exitDx=0;exitDy=0;exitPerimeter=0;entryX=0;entryY=0.5;entryDx=0;entryDy=0;" parent="1" source="23" target="10" edge="1">
                    <mxGeometry relative="1" as="geometry"/>
                </mxCell>
                <mxCell id="19" style="edgeStyle=none;html=1;exitX=0.5;exitY=0.5;exitDx=0;exitDy=0;exitPerimeter=0;entryX=0;entryY=0.5;entryDx=0;entryDy=0;" parent="1" source="23" target="6" edge="1">
                    <mxGeometry relative="1" as="geometry"/>
                </mxCell>
                <mxCell id="20" style="edgeStyle=none;html=1;exitX=0.5;exitY=0.5;exitDx=0;exitDy=0;exitPerimeter=0;entryX=0;entryY=0.5;entryDx=0;entryDy=0;" parent="1" source="23" target="4" edge="1">
                    <mxGeometry relative="1" as="geometry"/>
                </mxCell>
                <mxCell id="21" style="edgeStyle=none;html=1;exitX=0.5;exitY=0.5;exitDx=0;exitDy=0;exitPerimeter=0;entryX=0;entryY=0.5;entryDx=0;entryDy=0;" parent="1" source="23" target="12" edge="1">
                    <mxGeometry relative="1" as="geometry"/>
                </mxCell>
                <mxCell id="22" style="edgeStyle=none;html=1;exitX=0.5;exitY=0.5;exitDx=0;exitDy=0;exitPerimeter=0;entryX=0;entryY=0.5;entryDx=0;entryDy=0;" parent="1" source="23" target="7" edge="1">
                    <mxGeometry relative="1" as="geometry"/>
                </mxCell>
                <mxCell id="23" value="Manager" style="shape=umlActor;verticalLabelPosition=bottom;verticalAlign=top;html=1;outlineConnect=0;" parent="1" vertex="1">
                    <mxGeometry x="80" y="450" width="30" height="60" as="geometry"/>
                </mxCell>
                <mxCell id="24" style="edgeStyle=none;html=1;entryX=0;entryY=0.5;entryDx=0;entryDy=0;exitX=0.5;exitY=0.5;exitDx=0;exitDy=0;exitPerimeter=0;" parent="1" source="25" target="2" edge="1">
                    <mxGeometry relative="1" as="geometry"/>
                </mxCell>
                <mxCell id="25" value="Admin&lt;br&gt;" style="shape=umlActor;verticalLabelPosition=bottom;verticalAlign=top;html=1;outlineConnect=0;" parent="1" vertex="1">
                    <mxGeometry x="80" y="660" width="30" height="60" as="geometry"/>
                </mxCell>
                <mxCell id="28" value="include" style="text;html=1;align=center;verticalAlign=middle;resizable=0;points=[];autosize=1;strokeColor=none;fillColor=none;" parent="1" vertex="1">
                    <mxGeometry x="310" y="305" width="60" height="30" as="geometry"/>
                </mxCell>
                <mxCell id="UqwAi3F1GRg0fCYJe8Jc-31" value="" style="edgeStyle=none;html=1;exitX=0.5;exitY=1;exitDx=0;exitDy=0;entryX=0.5;entryY=0;entryDx=0;entryDy=0;dashed=1;endArrow=none;" edge="1" parent="1" source="8" target="UqwAi3F1GRg0fCYJe8Jc-30">
                    <mxGeometry relative="1" as="geometry">
                        <mxPoint x="480" y="190" as="sourcePoint"/>
                        <mxPoint x="470" y="280" as="targetPoint"/>
                    </mxGeometry>
                </mxCell>
                <mxCell id="UqwAi3F1GRg0fCYJe8Jc-30" value="include" style="text;html=1;align=center;verticalAlign=middle;resizable=0;points=[];autosize=1;strokeColor=none;fillColor=none;" vertex="1" parent="1">
                    <mxGeometry x="450" y="210" width="60" height="30" as="geometry"/>
                </mxCell>
                <mxCell id="UqwAi3F1GRg0fCYJe8Jc-32" value="" style="edgeStyle=none;html=1;exitX=0;exitY=0.5;exitDx=0;exitDy=0;entryX=1;entryY=0.5;entryDx=0;entryDy=0;dashed=1;endArrow=none;" edge="1" parent="1" source="10" target="29">
                    <mxGeometry relative="1" as="geometry">
                        <mxPoint x="670" y="320" as="sourcePoint"/>
                        <mxPoint x="530" y="320" as="targetPoint"/>
                    </mxGeometry>
                </mxCell>
                <mxCell id="29" value="include" style="text;html=1;align=center;verticalAlign=middle;resizable=0;points=[];autosize=1;strokeColor=none;fillColor=none;" parent="1" vertex="1">
                    <mxGeometry x="550" y="305" width="60" height="30" as="geometry"/>
                </mxCell>
                <mxCell id="UqwAi3F1GRg0fCYJe8Jc-33" value="" style="edgeStyle=none;html=1;exitX=0.5;exitY=0;exitDx=0;exitDy=0;entryX=0.5;entryY=1;entryDx=0;entryDy=0;dashed=1;endArrow=none;" edge="1" parent="1" source="6" target="27">
                    <mxGeometry relative="1" as="geometry">
                        <mxPoint x="470" y="440" as="sourcePoint"/>
                        <mxPoint x="470" y="360" as="targetPoint"/>
                    </mxGeometry>
                </mxCell>
                <mxCell id="27" value="include" style="text;html=1;align=center;verticalAlign=middle;resizable=0;points=[];autosize=1;strokeColor=none;fillColor=none;" parent="1" vertex="1">
                    <mxGeometry x="440" y="390" width="60" height="30" as="geometry"/>
                </mxCell>
                <mxCell id="UqwAi3F1GRg0fCYJe8Jc-34" value="" style="edgeStyle=none;html=1;exitX=1;exitY=0.5;exitDx=0;exitDy=0;dashed=1;entryX=0.5;entryY=1;entryDx=0;entryDy=0;endArrow=none;" edge="1" parent="1" source="4" target="26">
                    <mxGeometry relative="1" as="geometry">
                        <mxPoint x="470" y="360" as="targetPoint"/>
                        <mxPoint x="530" y="600" as="sourcePoint"/>
                    </mxGeometry>
                </mxCell>
                <mxCell id="26" value="include" style="text;html=1;align=center;verticalAlign=middle;resizable=0;points=[];autosize=1;strokeColor=none;fillColor=none;" parent="1" vertex="1">
                    <mxGeometry x="500" y="530" width="60" height="30" as="geometry"/>
                </mxCell>
            </root>
        </mxGraphModel>
    </diagram>
    <diagram id="VYw16kCBRwnrMkP2-Y2t" name="V2">
        <mxGraphModel dx="2082" dy="1702" grid="1" gridSize="10" guides="1" tooltips="1" connect="1" arrows="1" fold="1" page="1" pageScale="1" pageWidth="1200" pageHeight="1920" math="0" shadow="0">
            <root>
                <mxCell id="0"/>
                <mxCell id="1" parent="0"/>
                <mxCell id="OBBWaI5K4Q-ejvOVbC0C-39" style="edgeStyle=none;html=1;exitX=0;exitY=0.5;exitDx=0;exitDy=0;entryX=1;entryY=1;entryDx=0;entryDy=0;dashed=1;startArrow=none;" edge="1" parent="1" source="OBBWaI5K4Q-ejvOVbC0C-130" target="69Xbg5taOt4RZzJXrqU1-1">
                    <mxGeometry relative="1" as="geometry"/>
                </mxCell>
                <mxCell id="OBBWaI5K4Q-ejvOVbC0C-40" style="edgeStyle=none;html=1;exitX=-0.044;exitY=0.557;exitDx=0;exitDy=0;entryX=1;entryY=0;entryDx=0;entryDy=0;dashed=1;startArrow=none;exitPerimeter=0;" edge="1" parent="1" source="OBBWaI5K4Q-ejvOVbC0C-125" target="69Xbg5taOt4RZzJXrqU1-1">
                    <mxGeometry relative="1" as="geometry"/>
                </mxCell>
                <mxCell id="69Xbg5taOt4RZzJXrqU1-1" value="UC8 DB Admin Deletes a User" style="ellipse;whiteSpace=wrap;html=1;" vertex="1" parent="1">
                    <mxGeometry x="860" y="200" width="120" height="80" as="geometry"/>
                </mxCell>
                <mxCell id="69Xbg5taOt4RZzJXrqU1-3" value="UC6 Manager Marks a Product as Sold" style="ellipse;whiteSpace=wrap;html=1;" vertex="1" parent="1">
                    <mxGeometry x="1645" y="1420" width="120" height="80" as="geometry"/>
                </mxCell>
                <mxCell id="69Xbg5taOt4RZzJXrqU1-5" value="UC5 Manager Adds a Product" style="ellipse;whiteSpace=wrap;html=1;" vertex="1" parent="1">
                    <mxGeometry x="1335" y="1480" width="120" height="80" as="geometry"/>
                </mxCell>
                <mxCell id="69Xbg5taOt4RZzJXrqU1-6" value="UC3 Sign Up" style="ellipse;whiteSpace=wrap;html=1;" vertex="1" parent="1">
                    <mxGeometry x="1560" y="940" width="120" height="80" as="geometry"/>
                </mxCell>
                <mxCell id="OBBWaI5K4Q-ejvOVbC0C-77" style="edgeStyle=none;html=1;exitX=0.5;exitY=1;exitDx=0;exitDy=0;entryX=0.5;entryY=0;entryDx=0;entryDy=0;dashed=1;startArrow=none;" edge="1" parent="1" source="OBBWaI5K4Q-ejvOVbC0C-151" target="OBBWaI5K4Q-ejvOVbC0C-34">
                    <mxGeometry relative="1" as="geometry"/>
                </mxCell>
                <mxCell id="OBBWaI5K4Q-ejvOVbC0C-112" style="edgeStyle=none;html=1;exitX=1;exitY=0.5;exitDx=0;exitDy=0;entryX=0;entryY=0;entryDx=0;entryDy=0;dashed=1;startArrow=none;" edge="1" parent="1" source="OBBWaI5K4Q-ejvOVbC0C-141" target="69Xbg5taOt4RZzJXrqU1-7">
                    <mxGeometry relative="1" as="geometry"/>
                </mxCell>
                <mxCell id="OBBWaI5K4Q-ejvOVbC0C-113" style="edgeStyle=none;html=1;exitX=0.5;exitY=1;exitDx=0;exitDy=0;entryX=0.5;entryY=0;entryDx=0;entryDy=0;dashed=1;startArrow=none;" edge="1" parent="1" source="OBBWaI5K4Q-ejvOVbC0C-139" target="69Xbg5taOt4RZzJXrqU1-7">
                    <mxGeometry relative="1" as="geometry"/>
                </mxCell>
                <mxCell id="OBBWaI5K4Q-ejvOVbC0C-114" style="edgeStyle=none;html=1;exitX=0;exitY=0.5;exitDx=0;exitDy=0;entryX=1;entryY=0;entryDx=0;entryDy=0;dashed=1;startArrow=none;" edge="1" parent="1" source="OBBWaI5K4Q-ejvOVbC0C-138" target="69Xbg5taOt4RZzJXrqU1-7">
                    <mxGeometry relative="1" as="geometry"/>
                </mxCell>
                <mxCell id="OBBWaI5K4Q-ejvOVbC0C-115" style="edgeStyle=none;html=1;exitX=0;exitY=0.5;exitDx=0;exitDy=0;entryX=1;entryY=1;entryDx=0;entryDy=0;dashed=1;startArrow=none;" edge="1" parent="1" source="OBBWaI5K4Q-ejvOVbC0C-140" target="69Xbg5taOt4RZzJXrqU1-7">
                    <mxGeometry relative="1" as="geometry"/>
                </mxCell>
                <mxCell id="69Xbg5taOt4RZzJXrqU1-7" value="UC4 Customer Buys a Product" style="ellipse;whiteSpace=wrap;html=1;" vertex="1" parent="1">
                    <mxGeometry x="1800" y="380" width="120" height="80" as="geometry"/>
                </mxCell>
                <mxCell id="OBBWaI5K4Q-ejvOVbC0C-66" style="edgeStyle=none;html=1;exitX=0;exitY=0.5;exitDx=0;exitDy=0;entryX=1;entryY=0.5;entryDx=0;entryDy=0;dashed=1;startArrow=none;" edge="1" parent="1" source="OBBWaI5K4Q-ejvOVbC0C-155" target="69Xbg5taOt4RZzJXrqU1-11">
                    <mxGeometry relative="1" as="geometry"/>
                </mxCell>
                <mxCell id="OBBWaI5K4Q-ejvOVbC0C-67" style="edgeStyle=none;html=1;exitX=0;exitY=0.5;exitDx=0;exitDy=0;entryX=1;entryY=0.5;entryDx=0;entryDy=0;dashed=1;startArrow=none;" edge="1" parent="1" source="OBBWaI5K4Q-ejvOVbC0C-156" target="OBBWaI5K4Q-ejvOVbC0C-34">
                    <mxGeometry relative="1" as="geometry"/>
                </mxCell>
                <mxCell id="69Xbg5taOt4RZzJXrqU1-9" value="UC2 Log Out" style="ellipse;whiteSpace=wrap;html=1;" vertex="1" parent="1">
                    <mxGeometry x="2090" y="930" width="120" height="80" as="geometry"/>
                </mxCell>
                <mxCell id="OBBWaI5K4Q-ejvOVbC0C-65" style="edgeStyle=none;html=1;dashed=1;startArrow=none;entryX=0.5;entryY=1;entryDx=0;entryDy=0;" edge="1" parent="1" source="OBBWaI5K4Q-ejvOVbC0C-165" target="69Xbg5taOt4RZzJXrqU1-6">
                    <mxGeometry relative="1" as="geometry">
                        <mxPoint x="1430" y="960" as="targetPoint"/>
                    </mxGeometry>
                </mxCell>
                <mxCell id="69Xbg5taOt4RZzJXrqU1-11" value="UC1.2 Login as Manager" style="ellipse;whiteSpace=wrap;html=1;" vertex="1" parent="1">
                    <mxGeometry x="1690" y="1070" width="120" height="80" as="geometry"/>
                </mxCell>
                <mxCell id="OBBWaI5K4Q-ejvOVbC0C-96" style="edgeStyle=none;html=1;exitX=0.5;exitY=0.5;exitDx=0;exitDy=0;exitPerimeter=0;entryX=0.5;entryY=0.5;entryDx=0;entryDy=0;entryPerimeter=0;dashed=1;startArrow=none;" edge="1" parent="1" source="OBBWaI5K4Q-ejvOVbC0C-134" target="OBBWaI5K4Q-ejvOVbC0C-94">
                    <mxGeometry relative="1" as="geometry"/>
                </mxCell>
                <mxCell id="OBBWaI5K4Q-ejvOVbC0C-101" style="edgeStyle=none;html=1;exitX=0.5;exitY=0.5;exitDx=0;exitDy=0;exitPerimeter=0;entryX=0;entryY=0.5;entryDx=0;entryDy=0;" edge="1" parent="1" source="69Xbg5taOt4RZzJXrqU1-16" target="OBBWaI5K4Q-ejvOVbC0C-34">
                    <mxGeometry relative="1" as="geometry">
                        <Array as="points">
                            <mxPoint x="1450" y="730"/>
                        </Array>
                    </mxGeometry>
                </mxCell>
                <mxCell id="OBBWaI5K4Q-ejvOVbC0C-103" style="edgeStyle=none;html=1;exitX=0.5;exitY=0.5;exitDx=0;exitDy=0;exitPerimeter=0;" edge="1" parent="1" source="69Xbg5taOt4RZzJXrqU1-16" target="69Xbg5taOt4RZzJXrqU1-7">
                    <mxGeometry relative="1" as="geometry"/>
                </mxCell>
                <mxCell id="OBBWaI5K4Q-ejvOVbC0C-110" style="edgeStyle=none;html=1;exitX=0.5;exitY=0.5;exitDx=0;exitDy=0;exitPerimeter=0;entryX=0;entryY=0.5;entryDx=0;entryDy=0;" edge="1" parent="1" source="69Xbg5taOt4RZzJXrqU1-16" target="69Xbg5taOt4RZzJXrqU1-31">
                    <mxGeometry relative="1" as="geometry"/>
                </mxCell>
                <mxCell id="OBBWaI5K4Q-ejvOVbC0C-111" style="edgeStyle=none;html=1;exitX=0.5;exitY=0.5;exitDx=0;exitDy=0;exitPerimeter=0;entryX=0.33;entryY=0.049;entryDx=0;entryDy=0;entryPerimeter=0;" edge="1" parent="1" source="69Xbg5taOt4RZzJXrqU1-16" target="OBBWaI5K4Q-ejvOVbC0C-33">
                    <mxGeometry relative="1" as="geometry"/>
                </mxCell>
                <mxCell id="OBBWaI5K4Q-ejvOVbC0C-120" style="edgeStyle=none;html=1;exitX=0.5;exitY=0.5;exitDx=0;exitDy=0;exitPerimeter=0;entryX=0;entryY=0;entryDx=0;entryDy=0;" edge="1" parent="1" source="69Xbg5taOt4RZzJXrqU1-16" target="OBBWaI5K4Q-ejvOVbC0C-25">
                    <mxGeometry relative="1" as="geometry"/>
                </mxCell>
                <mxCell id="69Xbg5taOt4RZzJXrqU1-16" value="Customer" style="shape=umlActor;verticalLabelPosition=bottom;verticalAlign=top;html=1;outlineConnect=0;" vertex="1" parent="1">
                    <mxGeometry x="1030" y="580" width="30" height="60" as="geometry"/>
                </mxCell>
                <mxCell id="OBBWaI5K4Q-ejvOVbC0C-102" style="edgeStyle=none;html=1;exitX=0.5;exitY=0.5;exitDx=0;exitDy=0;exitPerimeter=0;entryX=0.02;entryY=0.62;entryDx=0;entryDy=0;entryPerimeter=0;" edge="1" parent="1" source="69Xbg5taOt4RZzJXrqU1-22" target="69Xbg5taOt4RZzJXrqU1-11">
                    <mxGeometry relative="1" as="geometry"/>
                </mxCell>
                <mxCell id="OBBWaI5K4Q-ejvOVbC0C-116" style="edgeStyle=none;html=1;exitX=0.5;exitY=0.5;exitDx=0;exitDy=0;exitPerimeter=0;entryX=0.5;entryY=0;entryDx=0;entryDy=0;" edge="1" parent="1" source="69Xbg5taOt4RZzJXrqU1-22" target="69Xbg5taOt4RZzJXrqU1-5">
                    <mxGeometry relative="1" as="geometry"/>
                </mxCell>
                <mxCell id="OBBWaI5K4Q-ejvOVbC0C-117" style="edgeStyle=none;html=1;exitX=0.5;exitY=0.5;exitDx=0;exitDy=0;exitPerimeter=0;entryX=0.5;entryY=0;entryDx=0;entryDy=0;" edge="1" parent="1" source="69Xbg5taOt4RZzJXrqU1-22" target="69Xbg5taOt4RZzJXrqU1-30">
                    <mxGeometry relative="1" as="geometry"/>
                </mxCell>
                <mxCell id="OBBWaI5K4Q-ejvOVbC0C-118" style="edgeStyle=none;html=1;exitX=0.5;exitY=0.5;exitDx=0;exitDy=0;exitPerimeter=0;entryX=0;entryY=0;entryDx=0;entryDy=0;" edge="1" parent="1" source="69Xbg5taOt4RZzJXrqU1-22" target="69Xbg5taOt4RZzJXrqU1-3">
                    <mxGeometry relative="1" as="geometry"/>
                </mxCell>
                <mxCell id="OBBWaI5K4Q-ejvOVbC0C-171" style="edgeStyle=none;html=1;exitX=0.5;exitY=0.5;exitDx=0;exitDy=0;exitPerimeter=0;entryX=0.5;entryY=0.5;entryDx=0;entryDy=0;entryPerimeter=0;dashed=1;startArrow=none;" edge="1" parent="1" source="OBBWaI5K4Q-ejvOVbC0C-170" target="OBBWaI5K4Q-ejvOVbC0C-94">
                    <mxGeometry relative="1" as="geometry"/>
                </mxCell>
                <mxCell id="69Xbg5taOt4RZzJXrqU1-22" value="Manager" style="shape=umlActor;verticalLabelPosition=bottom;verticalAlign=top;html=1;outlineConnect=0;" vertex="1" parent="1">
                    <mxGeometry x="1475" y="1350" width="30" height="60" as="geometry"/>
                </mxCell>
                <mxCell id="69Xbg5taOt4RZzJXrqU1-23" style="edgeStyle=none;html=1;entryX=0;entryY=0.5;entryDx=0;entryDy=0;exitX=0.5;exitY=0.5;exitDx=0;exitDy=0;exitPerimeter=0;" edge="1" parent="1" source="69Xbg5taOt4RZzJXrqU1-24" target="69Xbg5taOt4RZzJXrqU1-1">
                    <mxGeometry relative="1" as="geometry"/>
                </mxCell>
                <mxCell id="69Xbg5taOt4RZzJXrqU1-33" style="edgeStyle=none;html=1;exitX=0.5;exitY=0.5;exitDx=0;exitDy=0;exitPerimeter=0;entryX=0;entryY=0.5;entryDx=0;entryDy=0;" edge="1" parent="1" source="69Xbg5taOt4RZzJXrqU1-24" target="69Xbg5taOt4RZzJXrqU1-32">
                    <mxGeometry relative="1" as="geometry"/>
                </mxCell>
                <mxCell id="69Xbg5taOt4RZzJXrqU1-24" value="Admin&lt;br&gt;" style="shape=umlActor;verticalLabelPosition=bottom;verticalAlign=top;html=1;outlineConnect=0;" vertex="1" parent="1">
                    <mxGeometry x="530" y="210" width="30" height="60" as="geometry"/>
                </mxCell>
                <mxCell id="OBBWaI5K4Q-ejvOVbC0C-168" style="edgeStyle=none;html=1;exitX=0.5;exitY=0.5;exitDx=0;exitDy=0;exitPerimeter=0;entryX=0.5;entryY=0.5;entryDx=0;entryDy=0;entryPerimeter=0;dashed=1;startArrow=none;" edge="1" parent="1" source="OBBWaI5K4Q-ejvOVbC0C-132" target="OBBWaI5K4Q-ejvOVbC0C-94">
                    <mxGeometry relative="1" as="geometry"/>
                </mxCell>
                <mxCell id="69Xbg5taOt4RZzJXrqU1-29" value="Visitor&lt;br&gt;" style="shape=umlActor;verticalLabelPosition=bottom;verticalAlign=top;html=1;outlineConnect=0;" vertex="1" parent="1">
                    <mxGeometry x="900" y="785" width="30" height="60" as="geometry"/>
                </mxCell>
                <mxCell id="69Xbg5taOt4RZzJXrqU1-30" value="&lt;u&gt;UC&lt;/u&gt;7 Maneger edit information of existing product" style="ellipse;whiteSpace=wrap;html=1;" vertex="1" parent="1">
                    <mxGeometry x="1505" y="1530" width="120" height="80" as="geometry"/>
                </mxCell>
                <mxCell id="OBBWaI5K4Q-ejvOVbC0C-76" style="edgeStyle=none;html=1;exitX=0;exitY=1;exitDx=0;exitDy=0;entryX=0;entryY=1;entryDx=0;entryDy=0;dashed=1;startArrow=none;" edge="1" parent="1" source="OBBWaI5K4Q-ejvOVbC0C-126" target="69Xbg5taOt4RZzJXrqU1-7">
                    <mxGeometry relative="1" as="geometry"/>
                </mxCell>
                <mxCell id="OBBWaI5K4Q-ejvOVbC0C-78" style="edgeStyle=none;html=1;exitX=0.5;exitY=1;exitDx=0;exitDy=0;dashed=1;entryX=0;entryY=0;entryDx=0;entryDy=0;startArrow=none;" edge="1" parent="1" source="OBBWaI5K4Q-ejvOVbC0C-153" target="OBBWaI5K4Q-ejvOVbC0C-34">
                    <mxGeometry relative="1" as="geometry">
                        <mxPoint x="1480" y="790" as="targetPoint"/>
                    </mxGeometry>
                </mxCell>
                <mxCell id="69Xbg5taOt4RZzJXrqU1-31" value="UC9 Customer submits Rating and Review" style="ellipse;whiteSpace=wrap;html=1;" vertex="1" parent="1">
                    <mxGeometry x="1530" y="530" width="140" height="80" as="geometry"/>
                </mxCell>
                <mxCell id="69Xbg5taOt4RZzJXrqU1-32" value="UC10 Community moderator Deletes a Review" style="ellipse;whiteSpace=wrap;html=1;" vertex="1" parent="1">
                    <mxGeometry x="680" y="300" width="120" height="80" as="geometry"/>
                </mxCell>
                <mxCell id="OBBWaI5K4Q-ejvOVbC0C-21" value="4.1a User Chooses a Category" style="ellipse;whiteSpace=wrap;html=1;" vertex="1" parent="1">
                    <mxGeometry x="640" y="1020" width="120" height="80" as="geometry"/>
                </mxCell>
                <mxCell id="OBBWaI5K4Q-ejvOVbC0C-22" value="4.1b User Chooses a Brand&lt;span style=&quot;color: rgba(0, 0, 0, 0); font-family: monospace; font-size: 0px; text-align: start;&quot;&gt;%3CmxGraphModel%3E%3Croot%3E%3CmxCell%20id%3D%220%22%2F%3E%3CmxCell%20id%3D%221%22%20parent%3D%220%22%2F%3E%3CmxCell%20id%3D%222%22%20value%3D%22include%22%20style%3D%22text%3Bhtml%3D1%3Balign%3Dcenter%3BverticalAlign%3Dmiddle%3Bresizable%3D0%3Bpoints%3D%5B%5D%3Bautosize%3D1%3BstrokeColor%3Dnone%3BfillColor%3Dnone%3B%22%20vertex%3D%221%22%20parent%3D%221%22%3E%3CmxGeometry%20x%3D%22550%22%20y%3D%22490%22%20width%3D%2260%22%20height%3D%2230%22%20as%3D%22geometry%22%2F%3E%3C%2FmxCell%3E%3C%2Froot%3E%3C%2FmxGraphModel%3E&lt;/span&gt;" style="ellipse;whiteSpace=wrap;html=1;" vertex="1" parent="1">
                    <mxGeometry x="930" y="1250" width="120" height="80" as="geometry"/>
                </mxCell>
                <mxCell id="OBBWaI5K4Q-ejvOVbC0C-24" value="4.1c User Chooses a Price Range&lt;span style=&quot;color: rgba(0, 0, 0, 0); font-family: monospace; font-size: 0px; text-align: start;&quot;&gt;%3CmxGraphModel%3E%3Croot%3E%3CmxCell%20id%3D%220%22%2F%3E%3CmxCell%20id%3D%221%22%20parent%3D%220%22%2F%3E%3CmxCell%20id%3D%222%22%20value%3D%22include%22%20style%3D%22text%3Bhtml%3D1%3Balign%3Dcenter%3BverticalAlign%3Dmiddle%3Bresizable%3D0%3Bpoints%3D%5B%5D%3Bautosize%3D1%3BstrokeColor%3Dnone%3BfillColor%3Dnone%3B%22%20vertex%3D%221%22%20parent%3D%221%22%3E%3CmxGeometry%20x%3D%22550%22%20y%3D%22490%22%20width%3D%2260%22%20height%3D%2230%22%20as%3D%22geometry%22%2F%3E%3C%2FmxCell%3E%3C%2Froot%3E%3C%2FmxGraphMode&lt;/span&gt;" style="ellipse;whiteSpace=wrap;html=1;" vertex="1" parent="1">
                    <mxGeometry x="740" y="940" width="120" height="80" as="geometry"/>
                </mxCell>
                <mxCell id="OBBWaI5K4Q-ejvOVbC0C-122" style="edgeStyle=none;html=1;entryX=0.019;entryY=0.681;entryDx=0;entryDy=0;entryPerimeter=0;dashed=1;startArrow=none;" edge="1" parent="1" source="OBBWaI5K4Q-ejvOVbC0C-159" target="OBBWaI5K4Q-ejvOVbC0C-34">
                    <mxGeometry relative="1" as="geometry"/>
                </mxCell>
                <mxCell id="OBBWaI5K4Q-ejvOVbC0C-25" value="4.3a Customer adds product to wishlist" style="ellipse;whiteSpace=wrap;html=1;" vertex="1" parent="1">
                    <mxGeometry x="1330" y="755" width="120" height="80" as="geometry"/>
                </mxCell>
                <mxCell id="OBBWaI5K4Q-ejvOVbC0C-26" value="4.3b Customer views the product page" style="ellipse;whiteSpace=wrap;html=1;" vertex="1" parent="1">
                    <mxGeometry x="780" y="1150" width="120" height="80" as="geometry"/>
                </mxCell>
                <mxCell id="OBBWaI5K4Q-ejvOVbC0C-27" value="4.7a Empty Cart" style="ellipse;whiteSpace=wrap;html=1;" vertex="1" parent="1">
                    <mxGeometry x="1580" y="300" width="120" height="80" as="geometry"/>
                </mxCell>
                <mxCell id="OBBWaI5K4Q-ejvOVbC0C-28" value="4.7b Remove Item from Cart" style="ellipse;whiteSpace=wrap;html=1;" vertex="1" parent="1">
                    <mxGeometry x="1780" y="220" width="120" height="80" as="geometry"/>
                </mxCell>
                <mxCell id="OBBWaI5K4Q-ejvOVbC0C-29" value="4.7c Delete the Entire Cart" style="ellipse;whiteSpace=wrap;html=1;" vertex="1" parent="1">
                    <mxGeometry x="1990" y="300" width="120" height="80" as="geometry"/>
                </mxCell>
                <mxCell id="OBBWaI5K4Q-ejvOVbC0C-30" value="4.7d Show Cart History" style="ellipse;whiteSpace=wrap;html=1;" vertex="1" parent="1">
                    <mxGeometry x="2000" y="430" width="120" height="80" as="geometry"/>
                </mxCell>
                <mxCell id="OBBWaI5K4Q-ejvOVbC0C-31" value="8.1a Filter by Role" style="ellipse;whiteSpace=wrap;html=1;" vertex="1" parent="1">
                    <mxGeometry x="1110" y="100" width="120" height="80" as="geometry"/>
                </mxCell>
                <mxCell id="OBBWaI5K4Q-ejvOVbC0C-32" value="8.1b Filter by Username" style="ellipse;whiteSpace=wrap;html=1;" vertex="1" parent="1">
                    <mxGeometry x="1110" y="290" width="120" height="80" as="geometry"/>
                </mxCell>
                <mxCell id="OBBWaI5K4Q-ejvOVbC0C-124" style="edgeStyle=none;html=1;exitX=1;exitY=0.5;exitDx=0;exitDy=0;dashed=1;startArrow=none;" edge="1" parent="1" source="OBBWaI5K4Q-ejvOVbC0C-161" target="OBBWaI5K4Q-ejvOVbC0C-34">
                    <mxGeometry relative="1" as="geometry"/>
                </mxCell>
                <mxCell id="OBBWaI5K4Q-ejvOVbC0C-33" value="4.5a Customer views wishlist" style="ellipse;whiteSpace=wrap;html=1;" vertex="1" parent="1">
                    <mxGeometry x="1310" y="900" width="120" height="80" as="geometry"/>
                </mxCell>
                <mxCell id="OBBWaI5K4Q-ejvOVbC0C-64" style="edgeStyle=none;html=1;entryX=1;entryY=0.5;entryDx=0;entryDy=0;dashed=1;startArrow=none;exitX=-0.007;exitY=0.496;exitDx=0;exitDy=0;exitPerimeter=0;" edge="1" parent="1" source="OBBWaI5K4Q-ejvOVbC0C-163" target="69Xbg5taOt4RZzJXrqU1-6">
                    <mxGeometry relative="1" as="geometry">
                        <mxPoint x="1700" y="900" as="sourcePoint"/>
                    </mxGeometry>
                </mxCell>
                <mxCell id="OBBWaI5K4Q-ejvOVbC0C-34" value="UC1.1 Log In as Customer" style="ellipse;whiteSpace=wrap;html=1;" vertex="1" parent="1">
                    <mxGeometry x="1770" y="730" width="120" height="80" as="geometry"/>
                </mxCell>
                <mxCell id="OBBWaI5K4Q-ejvOVbC0C-100" style="edgeStyle=none;html=1;exitX=0.5;exitY=0.5;exitDx=0;exitDy=0;exitPerimeter=0;entryX=0;entryY=0.5;entryDx=0;entryDy=0;" edge="1" parent="1" source="OBBWaI5K4Q-ejvOVbC0C-94" target="69Xbg5taOt4RZzJXrqU1-6">
                    <mxGeometry relative="1" as="geometry"/>
                </mxCell>
                <mxCell id="OBBWaI5K4Q-ejvOVbC0C-105" style="edgeStyle=none;html=1;exitX=0.5;exitY=0.5;exitDx=0;exitDy=0;exitPerimeter=0;entryX=1.013;entryY=0.646;entryDx=0;entryDy=0;entryPerimeter=0;" edge="1" parent="1" source="OBBWaI5K4Q-ejvOVbC0C-94" target="OBBWaI5K4Q-ejvOVbC0C-22">
                    <mxGeometry relative="1" as="geometry"/>
                </mxCell>
                <mxCell id="OBBWaI5K4Q-ejvOVbC0C-106" style="edgeStyle=none;html=1;exitX=0.5;exitY=0.5;exitDx=0;exitDy=0;exitPerimeter=0;entryX=1;entryY=0.5;entryDx=0;entryDy=0;" edge="1" parent="1" source="OBBWaI5K4Q-ejvOVbC0C-94" target="OBBWaI5K4Q-ejvOVbC0C-24">
                    <mxGeometry relative="1" as="geometry"/>
                </mxCell>
                <mxCell id="OBBWaI5K4Q-ejvOVbC0C-107" style="edgeStyle=none;html=1;exitX=0.5;exitY=0.5;exitDx=0;exitDy=0;exitPerimeter=0;entryX=1.023;entryY=0.611;entryDx=0;entryDy=0;entryPerimeter=0;" edge="1" parent="1" source="OBBWaI5K4Q-ejvOVbC0C-94" target="OBBWaI5K4Q-ejvOVbC0C-21">
                    <mxGeometry relative="1" as="geometry"/>
                </mxCell>
                <mxCell id="OBBWaI5K4Q-ejvOVbC0C-108" style="edgeStyle=none;html=1;exitX=0.5;exitY=0.5;exitDx=0;exitDy=0;exitPerimeter=0;entryX=1;entryY=0.5;entryDx=0;entryDy=0;" edge="1" parent="1" source="OBBWaI5K4Q-ejvOVbC0C-94" target="OBBWaI5K4Q-ejvOVbC0C-26">
                    <mxGeometry relative="1" as="geometry"/>
                </mxCell>
                <mxCell id="OBBWaI5K4Q-ejvOVbC0C-94" value="User" style="shape=umlActor;verticalLabelPosition=bottom;verticalAlign=top;html=1;outlineConnect=0;" vertex="1" parent="1">
                    <mxGeometry x="1260" y="1010" width="30" height="60" as="geometry"/>
                </mxCell>
                <mxCell id="OBBWaI5K4Q-ejvOVbC0C-129" value="" style="edgeStyle=none;html=1;exitX=0;exitY=0.5;exitDx=0;exitDy=0;entryX=0.983;entryY=0.557;entryDx=0;entryDy=0;dashed=1;endArrow=none;entryPerimeter=0;" edge="1" parent="1" source="OBBWaI5K4Q-ejvOVbC0C-31" target="OBBWaI5K4Q-ejvOVbC0C-125">
                    <mxGeometry relative="1" as="geometry">
                        <mxPoint x="1109.9999999999957" y="140" as="sourcePoint"/>
                        <mxPoint x="962.4264068711991" y="211.71572875253366" as="targetPoint"/>
                    </mxGeometry>
                </mxCell>
                <mxCell id="OBBWaI5K4Q-ejvOVbC0C-125" value="Extend" style="text;html=1;align=center;verticalAlign=middle;resizable=0;points=[];autosize=1;strokeColor=none;fillColor=none;" vertex="1" parent="1">
                    <mxGeometry x="1010" y="160" width="60" height="30" as="geometry"/>
                </mxCell>
                <mxCell id="OBBWaI5K4Q-ejvOVbC0C-131" value="" style="edgeStyle=none;html=1;exitX=0;exitY=0.5;exitDx=0;exitDy=0;entryX=1.048;entryY=0.502;entryDx=0;entryDy=0;dashed=1;endArrow=none;entryPerimeter=0;" edge="1" parent="1" source="OBBWaI5K4Q-ejvOVbC0C-32" target="OBBWaI5K4Q-ejvOVbC0C-130">
                    <mxGeometry relative="1" as="geometry">
                        <mxPoint x="1109.9999999999957" y="330" as="sourcePoint"/>
                        <mxPoint x="962.4264068711991" y="268.2842712474662" as="targetPoint"/>
                    </mxGeometry>
                </mxCell>
                <mxCell id="OBBWaI5K4Q-ejvOVbC0C-130" value="Extend" style="text;html=1;align=center;verticalAlign=middle;resizable=0;points=[];autosize=1;strokeColor=none;fillColor=none;" vertex="1" parent="1">
                    <mxGeometry x="1010" y="285" width="60" height="30" as="geometry"/>
                </mxCell>
                <mxCell id="OBBWaI5K4Q-ejvOVbC0C-135" value="" style="edgeStyle=none;html=1;exitX=0.5;exitY=0.5;exitDx=0;exitDy=0;exitPerimeter=0;entryX=0.5;entryY=0.5;entryDx=0;entryDy=0;entryPerimeter=0;dashed=1;endArrow=none;" edge="1" parent="1" source="69Xbg5taOt4RZzJXrqU1-16" target="OBBWaI5K4Q-ejvOVbC0C-134">
                    <mxGeometry relative="1" as="geometry">
                        <mxPoint x="1045" y="610" as="sourcePoint"/>
                        <mxPoint x="1215" y="1000" as="targetPoint"/>
                    </mxGeometry>
                </mxCell>
                <mxCell id="OBBWaI5K4Q-ejvOVbC0C-134" value="Extend" style="text;html=1;align=center;verticalAlign=middle;resizable=0;points=[];autosize=1;strokeColor=none;fillColor=none;" vertex="1" parent="1">
                    <mxGeometry x="1110" y="795" width="60" height="30" as="geometry"/>
                </mxCell>
                <mxCell id="OBBWaI5K4Q-ejvOVbC0C-142" value="" style="edgeStyle=none;html=1;exitX=1;exitY=0.5;exitDx=0;exitDy=0;entryX=0;entryY=0;entryDx=0;entryDy=0;dashed=1;endArrow=none;" edge="1" parent="1" source="OBBWaI5K4Q-ejvOVbC0C-27" target="OBBWaI5K4Q-ejvOVbC0C-141">
                    <mxGeometry relative="1" as="geometry">
                        <mxPoint x="1700" y="340" as="sourcePoint"/>
                        <mxPoint x="1817.5735931287954" y="391.71572875253037" as="targetPoint"/>
                    </mxGeometry>
                </mxCell>
                <mxCell id="OBBWaI5K4Q-ejvOVbC0C-141" value="Extend" style="text;html=1;align=center;verticalAlign=middle;resizable=0;points=[];autosize=1;strokeColor=none;fillColor=none;" vertex="1" parent="1">
                    <mxGeometry x="1720" y="350" width="60" height="30" as="geometry"/>
                </mxCell>
                <mxCell id="OBBWaI5K4Q-ejvOVbC0C-143" value="" style="edgeStyle=none;html=1;exitX=0.5;exitY=1;exitDx=0;exitDy=0;entryX=0.5;entryY=0;entryDx=0;entryDy=0;dashed=1;endArrow=none;" edge="1" parent="1" source="OBBWaI5K4Q-ejvOVbC0C-28" target="OBBWaI5K4Q-ejvOVbC0C-139">
                    <mxGeometry relative="1" as="geometry">
                        <mxPoint x="1840" y="300" as="sourcePoint"/>
                        <mxPoint x="1860" y="380" as="targetPoint"/>
                    </mxGeometry>
                </mxCell>
                <mxCell id="OBBWaI5K4Q-ejvOVbC0C-139" value="Extend" style="text;html=1;align=center;verticalAlign=middle;resizable=0;points=[];autosize=1;strokeColor=none;fillColor=none;" vertex="1" parent="1">
                    <mxGeometry x="1820" y="325" width="60" height="30" as="geometry"/>
                </mxCell>
                <mxCell id="OBBWaI5K4Q-ejvOVbC0C-144" value="" style="edgeStyle=none;html=1;exitX=0;exitY=0.5;exitDx=0;exitDy=0;entryX=1;entryY=0;entryDx=0;entryDy=0;dashed=1;endArrow=none;" edge="1" parent="1" source="OBBWaI5K4Q-ejvOVbC0C-29" target="OBBWaI5K4Q-ejvOVbC0C-138">
                    <mxGeometry relative="1" as="geometry">
                        <mxPoint x="1990" y="340" as="sourcePoint"/>
                        <mxPoint x="1902.426406871205" y="391.7157287525299" as="targetPoint"/>
                    </mxGeometry>
                </mxCell>
                <mxCell id="OBBWaI5K4Q-ejvOVbC0C-138" value="Extend" style="text;html=1;align=center;verticalAlign=middle;resizable=0;points=[];autosize=1;strokeColor=none;fillColor=none;" vertex="1" parent="1">
                    <mxGeometry x="1920" y="350" width="60" height="30" as="geometry"/>
                </mxCell>
                <mxCell id="OBBWaI5K4Q-ejvOVbC0C-145" value="" style="edgeStyle=none;html=1;exitX=0;exitY=0.5;exitDx=0;exitDy=0;entryX=1;entryY=1;entryDx=0;entryDy=0;dashed=1;endArrow=none;" edge="1" parent="1" source="OBBWaI5K4Q-ejvOVbC0C-30" target="OBBWaI5K4Q-ejvOVbC0C-140">
                    <mxGeometry relative="1" as="geometry">
                        <mxPoint x="1999.9999999999918" y="470" as="sourcePoint"/>
                        <mxPoint x="1902.426406871205" y="448.2842712474701" as="targetPoint"/>
                    </mxGeometry>
                </mxCell>
                <mxCell id="OBBWaI5K4Q-ejvOVbC0C-140" value="Extend" style="text;html=1;align=center;verticalAlign=middle;resizable=0;points=[];autosize=1;strokeColor=none;fillColor=none;" vertex="1" parent="1">
                    <mxGeometry x="1940" y="450" width="60" height="30" as="geometry"/>
                </mxCell>
                <mxCell id="OBBWaI5K4Q-ejvOVbC0C-148" value="" style="edgeStyle=none;html=1;exitX=0.921;exitY=0.195;exitDx=0;exitDy=0;entryX=0;entryY=1;entryDx=0;entryDy=0;dashed=1;endArrow=none;exitPerimeter=0;" edge="1" parent="1" source="69Xbg5taOt4RZzJXrqU1-31" target="OBBWaI5K4Q-ejvOVbC0C-126">
                    <mxGeometry relative="1" as="geometry">
                        <mxPoint x="1590.5025253169415" y="558.2842712474617" as="sourcePoint"/>
                        <mxPoint x="1817.5735931287954" y="448.28427124746963" as="targetPoint"/>
                    </mxGeometry>
                </mxCell>
                <mxCell id="OBBWaI5K4Q-ejvOVbC0C-126" value="Include" style="text;html=1;align=center;verticalAlign=middle;resizable=0;points=[];autosize=1;strokeColor=none;fillColor=none;" vertex="1" parent="1">
                    <mxGeometry x="1730" y="460" width="60" height="30" as="geometry"/>
                </mxCell>
                <mxCell id="OBBWaI5K4Q-ejvOVbC0C-152" value="" style="edgeStyle=none;html=1;exitX=0.5;exitY=1;exitDx=0;exitDy=0;entryX=0.5;entryY=0;entryDx=0;entryDy=0;dashed=1;endArrow=none;" edge="1" parent="1" source="69Xbg5taOt4RZzJXrqU1-7" target="OBBWaI5K4Q-ejvOVbC0C-151">
                    <mxGeometry relative="1" as="geometry">
                        <mxPoint x="1860" y="460" as="sourcePoint"/>
                        <mxPoint x="1790" y="655" as="targetPoint"/>
                    </mxGeometry>
                </mxCell>
                <mxCell id="OBBWaI5K4Q-ejvOVbC0C-151" value="Include" style="text;html=1;align=center;verticalAlign=middle;resizable=0;points=[];autosize=1;strokeColor=none;fillColor=none;" vertex="1" parent="1">
                    <mxGeometry x="1860" y="515" width="60" height="30" as="geometry"/>
                </mxCell>
                <mxCell id="OBBWaI5K4Q-ejvOVbC0C-154" value="" style="edgeStyle=none;html=1;exitX=0.5;exitY=1;exitDx=0;exitDy=0;dashed=1;entryX=0;entryY=0;entryDx=0;entryDy=0;endArrow=none;" edge="1" parent="1" source="69Xbg5taOt4RZzJXrqU1-31" target="OBBWaI5K4Q-ejvOVbC0C-153">
                    <mxGeometry relative="1" as="geometry">
                        <mxPoint x="1747.5735931288073" y="666.7157287525383" as="targetPoint"/>
                        <mxPoint x="1640" y="570" as="sourcePoint"/>
                    </mxGeometry>
                </mxCell>
                <mxCell id="OBBWaI5K4Q-ejvOVbC0C-153" value="Include" style="text;html=1;align=center;verticalAlign=middle;resizable=0;points=[];autosize=1;strokeColor=none;fillColor=none;" vertex="1" parent="1">
                    <mxGeometry x="1675" y="640" width="60" height="30" as="geometry"/>
                </mxCell>
                <mxCell id="OBBWaI5K4Q-ejvOVbC0C-157" value="" style="edgeStyle=none;html=1;exitX=0;exitY=0.5;exitDx=0;exitDy=0;entryX=1;entryY=0.5;entryDx=0;entryDy=0;dashed=1;endArrow=none;" edge="1" parent="1" source="69Xbg5taOt4RZzJXrqU1-9" target="OBBWaI5K4Q-ejvOVbC0C-156">
                    <mxGeometry relative="1" as="geometry">
                        <mxPoint x="1620" y="960" as="sourcePoint"/>
                        <mxPoint x="1640" y="795" as="targetPoint"/>
                    </mxGeometry>
                </mxCell>
                <mxCell id="OBBWaI5K4Q-ejvOVbC0C-156" value="Include" style="text;html=1;align=center;verticalAlign=middle;resizable=0;points=[];autosize=1;strokeColor=none;fillColor=none;rotation=25;" vertex="1" parent="1">
                    <mxGeometry x="1930" y="830" width="60" height="30" as="geometry"/>
                </mxCell>
                <mxCell id="OBBWaI5K4Q-ejvOVbC0C-158" value="" style="edgeStyle=none;html=1;exitX=0;exitY=0.5;exitDx=0;exitDy=0;entryX=1;entryY=0.5;entryDx=0;entryDy=0;dashed=1;endArrow=none;" edge="1" parent="1" source="69Xbg5taOt4RZzJXrqU1-9" target="OBBWaI5K4Q-ejvOVbC0C-155">
                    <mxGeometry relative="1" as="geometry">
                        <mxPoint x="1620" y="960" as="sourcePoint"/>
                        <mxPoint x="1580" y="1100" as="targetPoint"/>
                    </mxGeometry>
                </mxCell>
                <mxCell id="OBBWaI5K4Q-ejvOVbC0C-155" value="Include" style="text;html=1;align=center;verticalAlign=middle;resizable=0;points=[];autosize=1;strokeColor=none;fillColor=none;" vertex="1" parent="1">
                    <mxGeometry x="1930" y="1035" width="60" height="30" as="geometry"/>
                </mxCell>
                <mxCell id="OBBWaI5K4Q-ejvOVbC0C-160" value="" style="edgeStyle=none;html=1;exitX=0.973;exitY=0.64;exitDx=0;exitDy=0;entryX=0.03;entryY=0.465;entryDx=0;entryDy=0;entryPerimeter=0;dashed=1;endArrow=none;exitPerimeter=0;" edge="1" parent="1" source="OBBWaI5K4Q-ejvOVbC0C-25" target="OBBWaI5K4Q-ejvOVbC0C-159">
                    <mxGeometry relative="1" as="geometry">
                        <mxPoint x="1330" y="835" as="sourcePoint"/>
                        <mxPoint x="1522.2799999999997" y="809.48" as="targetPoint"/>
                    </mxGeometry>
                </mxCell>
                <mxCell id="OBBWaI5K4Q-ejvOVbC0C-159" value="Include" style="text;html=1;align=center;verticalAlign=middle;resizable=0;points=[];autosize=1;strokeColor=none;fillColor=none;" vertex="1" parent="1">
                    <mxGeometry x="1510" y="800" width="60" height="30" as="geometry"/>
                </mxCell>
                <mxCell id="OBBWaI5K4Q-ejvOVbC0C-162" value="" style="edgeStyle=none;html=1;exitX=1;exitY=0.5;exitDx=0;exitDy=0;dashed=1;endArrow=none;" edge="1" parent="1" source="OBBWaI5K4Q-ejvOVbC0C-33" target="OBBWaI5K4Q-ejvOVbC0C-161">
                    <mxGeometry relative="1" as="geometry">
                        <mxPoint x="1330.0000000000045" y="890" as="sourcePoint"/>
                        <mxPoint x="1602.8377724475877" y="832.1560180111458" as="targetPoint"/>
                    </mxGeometry>
                </mxCell>
                <mxCell id="OBBWaI5K4Q-ejvOVbC0C-161" value="Include" style="text;html=1;align=center;verticalAlign=middle;resizable=0;points=[];autosize=1;strokeColor=none;fillColor=none;" vertex="1" parent="1">
                    <mxGeometry x="1490" y="875" width="60" height="30" as="geometry"/>
                </mxCell>
                <mxCell id="OBBWaI5K4Q-ejvOVbC0C-164" value="" style="edgeStyle=none;html=1;exitX=0;exitY=1;exitDx=0;exitDy=0;entryX=1;entryY=0.5;entryDx=0;entryDy=0;dashed=1;endArrow=none;" edge="1" parent="1" source="OBBWaI5K4Q-ejvOVbC0C-34" target="OBBWaI5K4Q-ejvOVbC0C-163">
                    <mxGeometry relative="1" as="geometry">
                        <mxPoint x="1617.5735931288073" y="848.2842712474617" as="sourcePoint"/>
                        <mxPoint x="1430" y="960" as="targetPoint"/>
                    </mxGeometry>
                </mxCell>
                <mxCell id="OBBWaI5K4Q-ejvOVbC0C-163" value="Include" style="text;html=1;align=center;verticalAlign=middle;resizable=0;points=[];autosize=1;strokeColor=none;fillColor=none;rotation=-30;" vertex="1" parent="1">
                    <mxGeometry x="1720" y="890" width="60" height="30" as="geometry"/>
                </mxCell>
                <mxCell id="OBBWaI5K4Q-ejvOVbC0C-166" value="" style="edgeStyle=none;html=1;exitX=0;exitY=0.5;exitDx=0;exitDy=0;dashed=1;endArrow=none;" edge="1" parent="1" source="69Xbg5taOt4RZzJXrqU1-11" target="OBBWaI5K4Q-ejvOVbC0C-165">
                    <mxGeometry relative="1" as="geometry">
                        <mxPoint x="1430" y="960" as="targetPoint"/>
                        <mxPoint x="1460" y="1100" as="sourcePoint"/>
                    </mxGeometry>
                </mxCell>
                <mxCell id="OBBWaI5K4Q-ejvOVbC0C-165" value="Include" style="text;html=1;align=center;verticalAlign=middle;resizable=0;points=[];autosize=1;strokeColor=none;fillColor=none;" vertex="1" parent="1">
                    <mxGeometry x="1620" y="1040" width="60" height="30" as="geometry"/>
                </mxCell>
                <mxCell id="OBBWaI5K4Q-ejvOVbC0C-169" value="" style="edgeStyle=none;html=1;exitX=0.5;exitY=0.5;exitDx=0;exitDy=0;exitPerimeter=0;entryX=0.5;entryY=0.5;entryDx=0;entryDy=0;entryPerimeter=0;dashed=1;endArrow=none;" edge="1" parent="1" source="69Xbg5taOt4RZzJXrqU1-29" target="OBBWaI5K4Q-ejvOVbC0C-132">
                    <mxGeometry relative="1" as="geometry">
                        <mxPoint x="915" y="815" as="sourcePoint"/>
                        <mxPoint x="1275" y="1040" as="targetPoint"/>
                    </mxGeometry>
                </mxCell>
                <mxCell id="OBBWaI5K4Q-ejvOVbC0C-132" value="Extend" style="text;html=1;align=center;verticalAlign=middle;resizable=0;points=[];autosize=1;strokeColor=none;fillColor=none;" vertex="1" parent="1">
                    <mxGeometry x="1070" y="920" width="60" height="30" as="geometry"/>
                </mxCell>
                <mxCell id="OBBWaI5K4Q-ejvOVbC0C-172" value="" style="edgeStyle=none;html=1;exitX=0.5;exitY=0.5;exitDx=0;exitDy=0;exitPerimeter=0;entryX=0.5;entryY=0.5;entryDx=0;entryDy=0;entryPerimeter=0;dashed=1;endArrow=none;" edge="1" parent="1" source="69Xbg5taOt4RZzJXrqU1-22" target="OBBWaI5K4Q-ejvOVbC0C-170">
                    <mxGeometry relative="1" as="geometry">
                        <mxPoint x="1490" y="1380" as="sourcePoint"/>
                        <mxPoint x="1275" y="1040" as="targetPoint"/>
                    </mxGeometry>
                </mxCell>
                <mxCell id="OBBWaI5K4Q-ejvOVbC0C-170" value="Extend" style="text;html=1;align=center;verticalAlign=middle;resizable=0;points=[];autosize=1;strokeColor=none;fillColor=none;rotation=0;" vertex="1" parent="1">
                    <mxGeometry x="1350" y="1190" width="60" height="30" as="geometry"/>
                </mxCell>
            </root>
        </mxGraphModel>
    </diagram>
</mxfile>
